<svg width="9" height="10" viewBox="0 0 9 10" fill="none" xmlns="http://www.w3.org/2000/svg">
<path d="M4.5 6C4.35833 6 4.23967 5.952 4.144 5.856C4.048 5.76033 4 5.64167 4 5.5C4 5.35833 4.048 5.2395 4.144 5.1435C4.23967 5.04783 4.35833 5 4.5 5C4.64167 5 4.7605 5.04783 4.8565 5.1435C4.95217 5.2395 5 5.35833 5 5.5C5 5.64167 4.95217 5.76033 4.8565 5.856C4.7605 5.952 4.64167 6 4.5 6ZM2.5 6C2.35833 6 2.2395 5.952 2.1435 5.856C2.04783 5.76033 2 5.64167 2 5.5C2 5.35833 2.04783 5.2395 2.1435 5.1435C2.2395 5.04783 2.35833 5 2.5 5C2.64167 5 2.7605 5.04783 2.8565 5.1435C2.95217 5.2395 3 5.35833 3 5.5C3 5.64167 2.95217 5.76033 2.8565 5.856C2.7605 5.952 2.64167 6 2.5 6ZM6.5 6C6.35833 6 6.23967 5.952 6.144 5.856C6.048 5.76033 6 5.64167 6 5.5C6 5.35833 6.048 5.2395 6.144 5.1435C6.23967 5.04783 6.35833 5 6.5 5C6.64167 5 6.76033 5.04783 6.856 5.1435C6.952 5.2395 7 5.35833 7 5.5C7 5.64167 6.952 5.76033 6.856 5.856C6.76033 5.952 6.64167 6 6.5 6ZM4.5 8C4.35833 8 4.23967 7.952 4.144 7.856C4.048 7.76033 4 7.64167 4 7.5C4 7.35833 4.048 7.23967 4.144 7.144C4.23967 7.048 4.35833 7 4.5 7C4.64167 7 4.7605 7.048 4.8565 7.144C4.95217 7.23967 5 7.35833 5 7.5C5 7.64167 4.95217 7.76033 4.8565 7.856C4.7605 7.952 4.64167 8 4.5 8ZM2.5 8C2.35833 8 2.2395 7.952 2.1435 7.856C2.04783 7.76033 2 7.64167 2 7.5C2 7.35833 2.04783 7.23967 2.1435 7.144C2.2395 7.048 2.35833 7 2.5 7C2.64167 7 2.7605 7.048 2.8565 7.144C2.95217 7.23967 3 7.35833 3 7.5C3 7.64167 2.95217 7.76033 2.8565 7.856C2.7605 7.952 2.64167 8 2.5 8ZM6.5 8C6.35833 8 6.23967 7.952 6.144 7.856C6.048 7.76033 6 7.64167 6 7.5C6 7.35833 6.048 7.23967 6.144 7.144C6.23967 7.048 6.35833 7 6.5 7C6.64167 7 6.76033 7.048 6.856 7.144C6.952 7.23967 7 7.35833 7 7.5C7 7.64167 6.952 7.76033 6.856 7.856C6.76033 7.952 6.64167 8 6.5 8ZM1 10C0.725 10 0.4895 9.90217 0.2935 9.7065C0.0978333 9.5105 0 9.275 0 9V2C0 1.725 0.0978333 1.48967 0.2935 1.294C0.4895 1.098 0.725 1 1 1H1.5V0H2.5V1H6.5V0H7.5V1H8C8.275 1 8.5105 1.098 8.7065 1.294C8.90217 1.48967 9 1.725 9 2V9C9 9.275 8.90217 9.5105 8.7065 9.7065C8.5105 9.90217 8.275 10 8 10H1ZM1 9H8V4H1V9Z" fill="#B6B6B6"/>
</svg>
